<?xml version="1.0" encoding="UTF-8" standalone="no"?><svg xmlns="http://www.w3.org/2000/svg" xmlns:xlink="http://www.w3.org/1999/xlink" contentScriptType="application/ecmascript" contentStyleType="text/css" height="319px" preserveAspectRatio="none" style="width:257px;height:319px;" version="1.1" viewBox="0 0 257 319" width="257px" zoomAndPan="magnify"><defs><filter height="300%" id="f1iyfrtrwjzkne" width="300%" x="-1" y="-1"><feGaussianBlur result="blurOut" stdDeviation="2.0"/><feColorMatrix in="blurOut" result="blurOut2" type="matrix" values="0 0 0 0 0 0 0 0 0 0 0 0 0 0 0 0 0 0 .4 0"/><feOffset dx="4.0" dy="4.0" in="blurOut2" result="blurOut3"/><feBlend in="SourceGraphic" in2="blurOut3" mode="normal"/></filter></defs><g><ellipse cx="58" cy="18" fill="#006400" filter="url(#f1iyfrtrwjzkne)" rx="10" ry="10" style="stroke: none; stroke-width: 1.0;"/><rect fill="#ADD8E6" filter="url(#f1iyfrtrwjzkne)" height="40" rx="12.5" ry="12.5" style="stroke: #FF0000; stroke-width: 1.5;" width="104" x="6" y="88"/><text fill="#000000" font-family="sans-serif" font-size="14" lengthAdjust="spacingAndGlyphs" textLength="94" x="11" y="112.8467">OrderCreated</text><rect fill="#ADD8E6" filter="url(#f1iyfrtrwjzkne)" height="40" rx="12.5" ry="12.5" style="stroke: #FF0000; stroke-width: 1.5;" width="78" x="19" y="188"/><text fill="#000000" font-family="sans-serif" font-size="14" lengthAdjust="spacingAndGlyphs" textLength="68" x="24" y="212.8467">OrderPaid</text><rect fill="#ADD8E6" filter="url(#f1iyfrtrwjzkne)" height="40" rx="12.5" ry="12.5" style="stroke: #FF0000; stroke-width: 1.5;" width="114" x="132" y="188"/><text fill="#000000" font-family="sans-serif" font-size="14" lengthAdjust="spacingAndGlyphs" textLength="104" x="137" y="212.8467">OrderDelivered</text><ellipse cx="189" cy="298" fill="none" filter="url(#f1iyfrtrwjzkne)" rx="10" ry="10" style="stroke: #8B0000; stroke-width: 1.0;"/><ellipse cx="189.5" cy="298.5" fill="#8B0000" rx="6" ry="6" style="stroke: none; stroke-width: 1.0;"/><!--MD5=[f423081e54216c3a5de99c20bf1d36f5]
link *start to OrderCreated--><path d="M58,28.086 C58,40.821 58,64.447 58,82.54 " fill="none" id="*start-&gt;OrderCreated" style="stroke: #A80036; stroke-width: 1.0;"/><polygon fill="#A80036" points="58,87.96,62,78.96,58,82.96,54,78.96,58,87.96" style="stroke: #A80036; stroke-width: 1.0;"/><!--MD5=[0bd231798aba9fdb619c927a5b829f73]
link OrderCreated to OrderPaid--><path d="M58,128.362 C58,143.932 58,165.897 58,182.657 " fill="none" id="OrderCreated-&gt;OrderPaid" style="stroke: #A80036; stroke-width: 1.0;"/><polygon fill="#A80036" points="58,187.679,62,178.679,58,182.679,54,178.679,58,187.679" style="stroke: #A80036; stroke-width: 1.0;"/><!--MD5=[aa2c650d3e867a0e24ac0a39209a23bf]
link OrderPaid to OrderDelivered--><path d="M97.1465,208 C107.026,208 116.905,208 126.784,208 " fill="none" id="OrderPaid-&gt;OrderDelivered" style="stroke: #A80036; stroke-width: 1.0;"/><polygon fill="#A80036" points="131.95,208,122.95,204,126.95,208,122.95,212,131.95,208" style="stroke: #A80036; stroke-width: 1.0;"/><!--MD5=[f0e159111c3a07f09e4ebe8926022604]
link OrderDelivered to *end--><path d="M189,228.0947 C189,244.4823 189,267.7425 189,282.6021 " fill="none" id="OrderDelivered-&gt;*end" style="stroke: #A80036; stroke-width: 1.0;"/><polygon fill="#A80036" points="189,287.6684,193,278.6684,189,282.6684,185,278.6684,189,287.6684" style="stroke: #A80036; stroke-width: 1.0;"/><!--MD5=[b3010e2ebb58a4c9035a259e990f9adb]
@startuml
skinparam state {
  StartColor DarkGreen
  EndColor DarkRed
  BackgroundColor LightBlue
  BackgroundColor<<Warning>> Olive
  BorderColor Red
}

hide empty description
[*] - -> OrderCreated
OrderCreated - -> OrderPaid
OrderPaid -> OrderDelivered
OrderDelivered - -> [*]
@enduml

PlantUML version 1.2020.03beta11(Unknown compile time)
(GPL source distribution)
Java Runtime: Java(TM) SE Runtime Environment
JVM: Java HotSpot(TM) 64-Bit Server VM
Java Version: 1.7.0_25-b15
Operating System: Linux
Default Encoding: UTF-8
Language: en
Country: US
--></g></svg>