<?xml version="1.0" encoding="UTF-8" standalone="no"?>
<svg xmlns="http://www.w3.org/2000/svg" contentScriptType="application/ecmascript" contentStyleType="text/css"
     height="319px" preserveAspectRatio="none" style="width:393px;height:319px;" version="1.1" viewBox="0 0 393 319"
     width="393px" zoomAndPan="magnify"><defs><filter height="300%" id="fo45t41zq9uj" width="300%" x="-1" y="-1"><feGaussianBlur result="blurOut" stdDeviation="2.0"/><feColorMatrix in="blurOut" result="blurOut2" type="matrix" values="0 0 0 0 0 0 0 0 0 0 0 0 0 0 0 0 0 0 .4 0"/><feOffset dx="4.0" dy="4.0" in="blurOut2" result="blurOut3"/><feBlend in="SourceGraphic" in2="blurOut3" mode="normal"/></filter></defs><g><ellipse cx="110" cy="18" fill="#006400" filter="url(#fo45t41zq9uj)" rx="10" ry="10" style="stroke: none; stroke-width: 1.0;"/><rect fill="#ADD8E6" filter="url(#fo45t41zq9uj)" height="40" rx="12.5" ry="12.5" style="stroke: #FF0000; stroke-width: 1.5;" width="104" x="58" y="88"/><text fill="#000000" font-family="sans-serif" font-size="14" lengthAdjust="spacingAndGlyphs" textLength="94" x="63" y="112.8467">OrderCreated</text><rect fill="#ADD8E6" filter="url(#fo45t41zq9uj)" height="40" rx="12.5" ry="12.5" style="stroke: #FF0000; stroke-width: 1.5;" width="78" x="6" y="188"/><text fill="#000000" font-family="sans-serif" font-size="14" lengthAdjust="spacingAndGlyphs" textLength="68" x="11" y="212.8467">OrderPaid</text><rect fill="#ADD8E6" filter="url(#fo45t41zq9uj)" height="40" rx="12.5" ry="12.5" style="stroke: #FF0000; stroke-width: 1.5;" width="114" x="119" y="188"/><text fill="#000000" font-family="sans-serif" font-size="14" lengthAdjust="spacingAndGlyphs" textLength="104" x="124" y="212.8467">OrderCanceled</text><rect fill="#ADD8E6" filter="url(#fo45t41zq9uj)" height="40" rx="12.5" ry="12.5" style="stroke: #FF0000; stroke-width: 1.5;" width="114" x="268" y="188"/><text fill="#000000" font-family="sans-serif" font-size="14" lengthAdjust="spacingAndGlyphs" textLength="104" x="273" y="212.8467">OrderDelivered</text><ellipse cx="250" cy="298" fill="none" filter="url(#fo45t41zq9uj)" rx="10" ry="10" style="stroke: #8B0000; stroke-width: 1.0;"/><ellipse cx="250.5" cy="298.5" fill="#8B0000" rx="6" ry="6" style="stroke: none; stroke-width: 1.0;"/><!--MD5=[f423081e54216c3a5de99c20bf1d36f5]
link *start to OrderCreated--><path d="M110,28.086 C110,40.821 110,64.447 110,82.54 " fill="none" id="*start-&gt;OrderCreated" style="stroke: #A80036; stroke-width: 1.0;"/><polygon fill="#A80036" points="110,87.96,114,78.96,110,82.96,106,78.96,110,87.96" style="stroke: #A80036; stroke-width: 1.0;"/><!--MD5=[0bd231798aba9fdb619c927a5b829f73]
link OrderCreated to OrderPaid--><path d="M97.1581,128.362 C86.742,144.066 72.0107,166.276 60.8591,183.089 " fill="none" id="OrderCreated-&gt;OrderPaid" style="stroke: #A80036; stroke-width: 1.0;"/><polygon fill="#A80036" points="57.8152,187.679,66.1238,182.3906,60.5793,183.5125,59.4575,177.968,57.8152,187.679" style="stroke: #A80036; stroke-width: 1.0;"/><!--MD5=[078b617127f193ddcc840a498f0a9869]
link OrderCreated to OrderCanceled--><path d="M123.039,128.362 C133.706,144.2 148.83,166.656 160.186,183.519 " fill="none" id="OrderCreated-&gt;OrderCanceled" style="stroke: #A80036; stroke-width: 1.0;"/><polygon fill="#A80036" points="162.988,187.679,161.2785,177.9796,160.1951,183.5318,154.643,182.4483,162.988,187.679" style="stroke: #A80036; stroke-width: 1.0;"/><!--MD5=[aa2c650d3e867a0e24ac0a39209a23bf]
link OrderPaid to OrderDelivered--><path d="M66.9536,187.876 C80.6712,176.705 99.3253,163.904 118.5,158 C167.348,142.96 183.979,145.352 233.5,158 C254.342,163.323 275.549,174.477 292.293,184.902 " fill="none" id="OrderPaid-&gt;OrderDelivered" style="stroke: #A80036; stroke-width: 1.0;"/><polygon fill="#A80036" points="296.893,187.818,291.4335,179.6208,292.6701,185.1408,287.1501,186.3774,296.893,187.818" style="stroke: #A80036; stroke-width: 1.0;"/><!--MD5=[2d028637507b1ee8c591671130752a19]
link OrderPaid to OrderCanceled--><path d="M84.1465,208 C94.0257,208 103.9049,208 113.784,208 " fill="none" id="OrderPaid-&gt;OrderCanceled" style="stroke: #A80036; stroke-width: 1.0;"/><polygon fill="#A80036" points="118.95,208,109.95,204,113.95,208,109.95,212,118.95,208" style="stroke: #A80036; stroke-width: 1.0;"/><!--MD5=[f0e159111c3a07f09e4ebe8926022604]
link OrderDelivered to *end--><path d="M308.726,228.0947 C293.734,245.686 271.991,271.1967 259.601,285.7346 " fill="none" id="OrderDelivered-&gt;*end" style="stroke: #A80036; stroke-width: 1.0;"/><polygon fill="#A80036" points="256.074,289.8731,264.9561,285.6176,259.3171,286.0676,258.8672,280.4286,256.074,289.8731" style="stroke: #A80036; stroke-width: 1.0;"/><!--MD5=[b1865c37331186c817de76544c9f33cf]
link OrderCanceled to *end--><path d="M192.057,228.0947 C206.85,245.686 228.302,271.1967 240.527,285.7346 " fill="none" id="OrderCanceled-&gt;*end" style="stroke: #A80036; stroke-width: 1.0;"/><polygon fill="#A80036" points="244.007,289.8731,241.2747,280.4108,240.7885,286.0467,235.1525,285.5605,244.007,289.8731" style="stroke: #A80036; stroke-width: 1.0;"/><!--MD5=[4bc779b8fccf0bb317c203b26f7ef3f3]
@startuml
skinparam state {
  StartColor DarkGreen
  EndColor DarkRed
  BackgroundColor LightBlue
  BackgroundColor<<Warning>> Olive
  BorderColor Red
}
hide empty description

[*] - -> OrderCreated
OrderCreated - -> OrderPaid
OrderCreated - -> OrderCanceled
OrderPaid -> OrderDelivered
OrderPaid -> OrderCanceled
OrderDelivered - -> [*]
OrderCanceled - -> [*]
@enduml

PlantUML version 1.2020.03beta11(Unknown compile time)
(GPL source distribution)
Java Runtime: Java(TM) SE Runtime Environment
JVM: Java HotSpot(TM) 64-Bit Server VM
Java Version: 1.7.0_25-b15
Operating System: Linux
Default Encoding: UTF-8
Language: en
Country: US
--></g></svg>
